<svg xmlns="http://www.w3.org/2000/svg" width="158" height="158" viewBox="0 0 158 158">
  <g id="Group_224" data-name="Group 224" transform="translate(-1319 -893)">
    <path id="Path_96" data-name="Path 96" d="M79,0A79,79,0,1,1,0,79,79,79,0,0,1,79,0Z" transform="translate(1319 893)" fill="#ffb76e"/>
    <g id="Group_223" data-name="Group 223" transform="translate(1348.925 927.2)">
      <g id="Group_216" data-name="Group 216">
        <path id="Path_80" data-name="Path 80" d="M78.6,61.2H74V56.7a4.118,4.118,0,0,0-4.1-4.1,4.055,4.055,0,0,0-4.1,4.1v4.5H61.3a4.1,4.1,0,0,0,0,8.2h4.5v4.5A4.118,4.118,0,0,0,69.9,78,4.055,4.055,0,0,0,74,73.9V69.4h4.5a4.1,4.1,0,0,0,.1-8.2Zm9.6-43h0a23,23,0,0,0-33.8,0L50,22.7l-4.3-4.5a23,23,0,0,0-33.8,0,26.106,26.106,0,0,0,0,35.2l4.6,4.9h0L42.4,85.8l1.4,1.3a10.169,10.169,0,0,0,6.3,2.1,10.378,10.378,0,0,0,6.3-2.1L61,82.5h0l.1-.1h0a3.928,3.928,0,0,0,1.1-2.8,4.1,4.1,0,0,0-6.9-3h0l-.1.1-.1.1L52.9,79l-1.2,1.3a2.276,2.276,0,0,1-1.7.8,2.482,2.482,0,0,1-1.7-.8L47.1,79h0L27.7,58.4h0L17.8,47.9a17.728,17.728,0,0,1,0-24.1,14.8,14.8,0,0,1,22,0L50,34.6,60.2,23.7a14.8,14.8,0,0,1,22,0,17.728,17.728,0,0,1,0,24.1l-2.4,2.6h0l-.1.1h0a3.928,3.928,0,0,0-1.1,2.8,4.1,4.1,0,0,0,7.1,2.8h0l2.6-2.7A26.212,26.212,0,0,0,88.2,18.2Z" fill="#fff"/>
      </g>
    </g>
  </g>
</svg>
