<svg xmlns="http://www.w3.org/2000/svg" width="131.623" height="49.636" viewBox="0 0 131.623 49.636">
  <g id="Group_212" data-name="Group 212" transform="translate(-29.177 -8)">
    <path id="Path_75" data-name="Path 75" d="M5.139.807q2.624,0,2.624-2.1A1.711,1.711,0,0,0,6.6-2.911,8.644,8.644,0,0,0,5.019-3.48,12.714,12.714,0,0,1,3.4-4.016,6.5,6.5,0,0,1,2.1-4.77,3.456,3.456,0,0,1,.809-7.734,3.867,3.867,0,0,1,2.2-10.883a5.512,5.512,0,0,1,3.63-1.148,9.742,9.742,0,0,1,4.166.9v3.281L7.764-7.7V-8.969a1.008,1.008,0,0,0-.087-.481q-.241-.416-1.542-.416a3.255,3.255,0,0,0-1.925.459,1.649,1.649,0,0,0-.623,1.422A1.679,1.679,0,0,0,4.111-6.76a2.627,2.627,0,0,0,1.039.58q.689.23,1.465.47a10.523,10.523,0,0,1,1.378.525A7.038,7.038,0,0,1,9.251-4.4a3.528,3.528,0,0,1,1.334,3.04A3.92,3.92,0,0,1,9.109,1.878,6.047,6.047,0,0,1,5.216,3.059a10.16,10.16,0,0,1-4.341-.9V-1.293l2.231-.153V-.112a1.008,1.008,0,0,0,.087.481.979.979,0,0,0,.536.3A5.074,5.074,0,0,0,5.139.807Zm6.736-7.261V-8.226h3.7V-6.8a3.882,3.882,0,0,1,3.357-1.75A2.83,2.83,0,0,1,21.8-6.8a3.852,3.852,0,0,1,3.324-1.75,3.091,3.091,0,0,1,2.428.951,4.16,4.16,0,0,1,.853,2.854V.96l1.247.066v1.75H24.45V1.113l.722-.066a.806.806,0,0,0,.47-.186.791.791,0,0,0,.164-.514V-4.18a4.393,4.393,0,0,0-.273-1.782q-.273-.58-1.279-.58a1.939,1.939,0,0,0-1.542.612,2.4,2.4,0,0,0-.536,1.64V.96l1.2.066v1.75H18.217V1.113l.722-.066A.866.866,0,0,0,19.42.861a.724.724,0,0,0,.153-.536V-4.18A4.393,4.393,0,0,0,19.3-5.962q-.273-.58-1.29-.58a1.886,1.886,0,0,0-1.542.634,2.387,2.387,0,0,0-.525,1.575V.96l1.181.066v1.75H11.963V1.113l.722-.066a.866.866,0,0,0,.481-.186.724.724,0,0,0,.153-.536h.022V-5.711a.816.816,0,0,0-.12-.514.6.6,0,0,0-.426-.164Zm24.1,7.633q2.384,0,2.384-3.849a6.443,6.443,0,0,0-.536-2.952,1.87,1.87,0,0,0-1.793-1.006,2.012,2.012,0,0,0-1.848.962,5,5,0,0,0-.59,2.624q0,3.084,1.137,3.871A2.13,2.13,0,0,0,35.976,1.178Zm-5.03-3.915a7.484,7.484,0,0,1,.481-2.81,4.3,4.3,0,0,1,1.29-1.826,5.541,5.541,0,0,1,3.434-1.181,5.2,5.2,0,0,1,2.22.426,4.521,4.521,0,0,1,1.422.984,4.528,4.528,0,0,1,.875,1.618,7.792,7.792,0,0,1,.361,2.5A6.425,6.425,0,0,1,39.563,1.55,4.929,4.929,0,0,1,35.812,3.1a4.5,4.5,0,0,1-3.576-1.476A6.456,6.456,0,0,1,30.946-2.736ZM47.524,1.178q2.384,0,2.384-3.849a6.443,6.443,0,0,0-.536-2.952,1.87,1.87,0,0,0-1.793-1.006,2.012,2.012,0,0,0-1.848.962,5,5,0,0,0-.59,2.624q0,3.084,1.137,3.871A2.13,2.13,0,0,0,47.524,1.178Zm-5.03-3.915a7.484,7.484,0,0,1,.481-2.81,4.3,4.3,0,0,1,1.29-1.826A5.541,5.541,0,0,1,47.7-8.554a5.2,5.2,0,0,1,2.22.426,4.521,4.521,0,0,1,1.422.984,4.528,4.528,0,0,1,.875,1.618,7.792,7.792,0,0,1,.361,2.5A6.426,6.426,0,0,1,51.11,1.55,4.929,4.929,0,0,1,47.359,3.1a4.5,4.5,0,0,1-3.576-1.476A6.457,6.457,0,0,1,42.493-2.736ZM56.14-10.544h1.422v2.318h2.909l-.219,1.837h-2.69V-.637a2,2,0,0,0,.35,1.345,1.4,1.4,0,0,0,1.083.383A2.794,2.794,0,0,0,60.471.632l.656,1.684a4.732,4.732,0,0,1-2.778.765,4.806,4.806,0,0,1-1.662-.252,3.025,3.025,0,0,1-1.006-.558,1.96,1.96,0,0,1-.5-.9,4.535,4.535,0,0,1-.2-.929q-.022-.339-.022-1V-6.389H53.407l.219-1.6a2.132,2.132,0,0,0,1.553-.733A6.482,6.482,0,0,0,56.14-10.544ZM63.292.325V-10.325a.723.723,0,0,0-.12-.481.627.627,0,0,0-.426-.153L61.98-11v-1.815h3.893v5.883a3.679,3.679,0,0,1,3.193-1.618,3.383,3.383,0,0,1,2.57.951,3.993,3.993,0,0,1,.908,2.854V.96l1.247.066v1.75H68.584V1.113l.722-.066a.866.866,0,0,0,.481-.186A.724.724,0,0,0,69.94.325V-4.18a3.479,3.479,0,0,0-.361-1.75,1.487,1.487,0,0,0-1.4-.612,2.2,2.2,0,0,0-1.662.645,2.168,2.168,0,0,0-.623,1.564V.96l1.247.066v1.75H61.936V1.113l.722-.066a.866.866,0,0,0,.481-.186A.724.724,0,0,0,63.292.325ZM79.038-8.226V.96l1.247.066v1.75H75.08V1.113l.722-.066a.63.63,0,0,0,.634-.7v-6.08a.766.766,0,0,0-.12-.5.563.563,0,0,0-.426-.131l-.765-.044V-8.226Zm-2.756-1.892a1.535,1.535,0,0,1-.459-1.148,1.608,1.608,0,0,1,.459-1.17,1.606,1.606,0,0,1,1.2-.47,1.643,1.643,0,0,1,1.214.47,1.588,1.588,0,0,1,.47,1.17,1.517,1.517,0,0,1-.47,1.148,1.687,1.687,0,0,1-1.214.448A1.649,1.649,0,0,1,76.283-10.118Zm10.76,1.564a3.951,3.951,0,0,1,2.6.8,2.751,2.751,0,0,1,.962,2.242,3.376,3.376,0,0,1-.416,1.695,3.356,3.356,0,0,1-1.028,1.148,5.4,5.4,0,0,1-1.487.678,11.537,11.537,0,0,1-3.3.437A2.9,2.9,0,0,0,85.1.315a2.611,2.611,0,0,0,2.012.711A4.665,4.665,0,0,0,89.82.063l.831,1.771a5.152,5.152,0,0,1-1.476.809,6.35,6.35,0,0,1-2.373.416,4.844,4.844,0,0,1-3.915-1.476,6.093,6.093,0,0,1-1.247-4.057A6.644,6.644,0,0,1,83.063-6.8,4.841,4.841,0,0,1,87.043-8.554Zm-1,5a3.544,3.544,0,0,0,1.476-.634,1.425,1.425,0,0,0,.678-1.17A1.17,1.17,0,0,0,86.89-6.695a2.132,2.132,0,0,0-1.881.973,4.468,4.468,0,0,0-.722,2.329A11.576,11.576,0,0,0,86.048-3.557ZM.612,21V19.229l.722-.066q.634-.066.634-.612V8.381L.721,8.315V6.456H6.714a7.015,7.015,0,0,1,5.019,1.706,6.629,6.629,0,0,1,1.8,5.052,10.833,10.833,0,0,1-.547,3.62A5.941,5.941,0,0,1,11.5,19.25,6.609,6.609,0,0,1,6.823,21ZM4.636,8.578V18.9H6.867A3.5,3.5,0,0,0,9.8,17.545a6.333,6.333,0,0,0,1.05-3.937q0-5.03-4.265-5.03ZM20.623,9.671a3.951,3.951,0,0,1,2.6.8,2.751,2.751,0,0,1,.962,2.242,3.389,3.389,0,0,1-1.443,2.843,5.4,5.4,0,0,1-1.487.678,11.537,11.537,0,0,1-3.3.437,2.9,2.9,0,0,0,.722,1.87,2.611,2.611,0,0,0,2.012.711,4.665,4.665,0,0,0,2.712-.962l.831,1.771a5.152,5.152,0,0,1-1.476.809,6.35,6.35,0,0,1-2.373.416,4.844,4.844,0,0,1-3.915-1.476,6.094,6.094,0,0,1-1.247-4.057,6.644,6.644,0,0,1,1.422-4.33A4.841,4.841,0,0,1,20.623,9.671Zm-1,5a3.544,3.544,0,0,0,1.476-.634,1.425,1.425,0,0,0,.678-1.17A1.17,1.17,0,0,0,20.47,11.53a2.132,2.132,0,0,0-1.881.973,4.468,4.468,0,0,0-.722,2.329A11.576,11.576,0,0,0,19.628,14.669ZM29.634,5.407V19.185l1.247.066V21H25.675V19.338l.722-.066a.63.63,0,0,0,.634-.7V7.79q0-.481-.547-.525l-.765-.044V5.407ZM36.195,10v9.185l1.247.066V21H32.236V19.338l.722-.066a.63.63,0,0,0,.634-.7v-6.08a.766.766,0,0,0-.12-.5.563.563,0,0,0-.426-.131l-.765-.044V10ZM33.439,8.108a1.535,1.535,0,0,1-.459-1.148,1.591,1.591,0,0,1,1.662-1.64,1.643,1.643,0,0,1,1.214.47,1.588,1.588,0,0,1,.47,1.17,1.517,1.517,0,0,1-.47,1.148,1.687,1.687,0,0,1-1.214.448A1.649,1.649,0,0,1,33.439,8.108Zm15,12.871a5.327,5.327,0,0,1-1.4,3.565,5.325,5.325,0,0,1-3.762,1.137,9.093,9.093,0,0,1-4-.722v-3.04l2.078-.175v1.05a.785.785,0,0,0,.547.8,4.384,4.384,0,0,0,1.509.208,2.2,2.2,0,0,0,1.968-.842,4.213,4.213,0,0,0,.569-2.373v-1.2a3.627,3.627,0,0,1-2.909,1.225,4.373,4.373,0,0,1-2-.437,3.378,3.378,0,0,1-1.345-1.181,6.408,6.408,0,0,1-.94-3.5,5.712,5.712,0,0,1,1.553-4.341A5.751,5.751,0,0,1,44.44,9.671a10.23,10.23,0,0,1,4.046.809v8.114Q48.486,20.453,48.442,20.978Zm-2.493-4.44v-4.7a5.383,5.383,0,0,0-1.75-.262,2.368,2.368,0,0,0-2.045.984,4.472,4.472,0,0,0-.711,2.668q0,3.455,2.274,3.455A2.287,2.287,0,0,0,45.3,18.1,2,2,0,0,0,45.949,16.539Zm5.992,2.012V7.9a.723.723,0,0,0-.12-.481.627.627,0,0,0-.426-.153l-.765-.044V5.407h3.893V11.29a3.679,3.679,0,0,1,3.193-1.618,3.383,3.383,0,0,1,2.57.951,3.993,3.993,0,0,1,.908,2.854v5.708l1.247.066V21H57.234V19.338l.722-.066a.866.866,0,0,0,.481-.186.724.724,0,0,0,.153-.536V14.045a3.479,3.479,0,0,0-.361-1.75,1.487,1.487,0,0,0-1.4-.612,2.2,2.2,0,0,0-1.662.645,2.168,2.168,0,0,0-.623,1.564v5.293l1.247.066V21H50.585V19.338l.722-.066a.866.866,0,0,0,.481-.186A.724.724,0,0,0,51.941,18.551ZM66.157,7.681h1.422V10h2.909l-.219,1.837h-2.69v5.752a2,2,0,0,0,.35,1.345,1.4,1.4,0,0,0,1.083.383,2.794,2.794,0,0,0,1.476-.459l.656,1.684a4.732,4.732,0,0,1-2.778.765,4.806,4.806,0,0,1-1.662-.252A3.025,3.025,0,0,1,65.7,20.5a1.96,1.96,0,0,1-.5-.9,4.536,4.536,0,0,1-.2-.929q-.022-.339-.022-1V11.836H63.423l.219-1.6a2.132,2.132,0,0,0,1.553-.733A6.482,6.482,0,0,0,66.157,7.681Z" transform="translate(70.149 31.955)"/>
    <g id="noun_smoothie_778820" transform="translate(61.593 56.804) rotate(-180)">
      <g id="Group_211" data-name="Group 211" transform="translate(6.99 43.435)">
        <path id="Path_73" data-name="Path 73" d="M4.179,1.068,2.3,5.369,0,4.3,1.879,0A14.674,14.674,0,0,0,4.179,1.068Z" transform="translate(0 0)" fill="#fc3e3c"/>
      </g>
      <path id="Path_74" data-name="Path 74" d="M1.939,31.961H0V24.522H2.536l2.635-21h.482L6.1,0H26.318l.443,3.527h.482l2.635,21h2.537v7.439H30.475a14.33,14.33,0,0,1-28.536,0Zm2.455,0a11.887,11.887,0,0,0,23.625,0Zm9.6.432-3.725,8.033a11.571,11.571,0,0,0,2.3,1.067l4.218-9.1ZM9.648,18.94a6.559,6.559,0,1,0,6.558-6.559A6.561,6.561,0,0,0,9.648,18.94Z" transform="translate(0 0)" fill="#fc3e3c"/>
    </g>
  </g>
</svg>
