<svg xmlns="http://www.w3.org/2000/svg" width="158" height="158" viewBox="0 0 158 158">
  <g id="Group_220" data-name="Group 220" transform="translate(-736 -893)">
    <circle id="Ellipse_196" data-name="Ellipse 196" cx="79" cy="79" r="79" transform="translate(736 893)" fill="#ffb76e"/>
    <g id="_15_Muscle" data-name="15 Muscle" transform="translate(771 923.016)">
      <path id="Path_82" data-name="Path 82" d="M62.256,45.194a21.014,21.014,0,0,0-13.765,5.053A24.968,24.968,0,0,0,39.376,48.5a23.471,23.471,0,0,0-2.752.16,40.821,40.821,0,0,0,.507-16.384c-.679-6.456-.846-10.185.738-12.188a12.1,12.1,0,0,0,11.08,5.263c7.663,0,12.424-4.913,12.424-12.829A11.444,11.444,0,0,0,48.94.031h-9.8a2.884,2.884,0,0,0-.741.1A37.182,37.182,0,0,0,10.7,26.734a103.852,103.852,0,0,0-2.916,15.1A113.576,113.576,0,0,1,1.713,67.867a2.951,2.951,0,0,0-.14,1.627c1.822,9.089,15.5,17.646,24.784,17.646,5.453,0,11.771-.4,15.973-2.965A23.064,23.064,0,0,0,62.241,93.4V87.569c-4.7,0-13.086-1.2-16.454-9.188a2.916,2.916,0,0,0-2.449-1.773,2.962,2.962,0,0,0-2.706,1.353c-.962,1.528-4.219,3.347-14.287,3.347-6.922,0-17.008-6.657-18.862-12.217a120.9,120.9,0,0,0,6.065-26.426,99.428,99.428,0,0,1,2.738-14.235A31.249,31.249,0,0,1,39.522,5.863H48.94c4.5,0,6.593,2.117,6.593,6.657,0,4.642-2.219,7-6.593,7-1.061,0-6.351-.184-6.351-3.811A2.916,2.916,0,0,0,38.9,12.9c-9.406,2.58-8.432,11.829-7.581,19.988.744,7.047,1.51,14.337-3.14,18.6a2.916,2.916,0,0,0,3.464,4.648,16.62,16.62,0,0,1,7.721-1.8,19.62,19.62,0,0,1,8.456,1.98,2.916,2.916,0,0,0,3.312-.583,15.285,15.285,0,0,1,11.124-4.709,17.918,17.918,0,0,1,17.891,17.9,19.18,19.18,0,0,1-5.286,13.077,17.326,17.326,0,0,1-12.608,5.569l-.02,2.916.032,2.916h0a23.108,23.108,0,0,0,16.818-7.38,25.058,25.058,0,0,0,6.893-17.1A23.755,23.755,0,0,0,62.256,45.194Z" transform="translate(0)" fill="#fff"/>
      <path id="Path_83" data-name="Path 83" d="M30.591,31.62a2.916,2.916,0,0,0,5.832,0A12.176,12.176,0,0,0,24.264,19.455a2.916,2.916,0,1,0,0,5.832,6.339,6.339,0,0,1,6.327,6.333Z" transform="translate(37.992 37.303)" fill="#fff"/>
    </g>
  </g>
</svg>
