<svg xmlns="http://www.w3.org/2000/svg" width="279.166" height="321" viewBox="0 0 279.166 321">
  <path id="Subtraction_18" data-name="Subtraction 18" d="M189.249,321H55.5V0h80.634L280.7.1a9.041,9.041,0,0,1,6.013,3.388A8.847,8.847,0,0,1,288.6,10.1a8.731,8.731,0,0,1-2.526,5.3A9.162,9.162,0,0,1,280.7,18h-148a11.045,11.045,0,0,0,0,22h108a10,10,0,0,1,0,20h-24a11.046,11.046,0,0,0,0,22h10v.1a9.042,9.042,0,0,1,6.013,3.388A8.847,8.847,0,0,1,234.6,92.1a8.731,8.731,0,0,1-2.526,5.3A9.162,9.162,0,0,1,226.7,100v.1h-66a10.816,10.816,0,0,0-7.414,3.813A10.995,10.995,0,0,0,160.7,122h85.6a8.937,8.937,0,0,1,8.2,9.8,9.07,9.07,0,0,1-8.2,8.2H124.7a11.046,11.046,0,0,0,0,22h202v.1a8.964,8.964,0,0,1,5.375,15.2,9.16,9.16,0,0,1-5.375,2.6v.1h-130a11.045,11.045,0,0,0,0,22h30v.1a8.963,8.963,0,0,1,5.375,15.2,9.162,9.162,0,0,1-5.375,2.6v.1h-4a11.045,11.045,0,0,0,0,22h60v.1a8.964,8.964,0,0,1,5.374,15.2,9.159,9.159,0,0,1-5.374,2.6v.1h-162a10.812,10.812,0,0,0-7.413,3.814A10.994,10.994,0,0,0,120.7,281.9h114v.1a8.964,8.964,0,0,1,5.375,15.2,9.162,9.162,0,0,1-5.375,2.6v.1h-42a11.038,11.038,0,0,0-3.452,21.1ZM102.7,99.7a10.83,10.83,0,0,0-7.439,3.888A10.989,10.989,0,0,0,92.7,111.6a11.1,11.1,0,0,0,10,10h26a10.822,10.822,0,0,0,7.475-3.85A11.02,11.02,0,0,0,128.7,99.7Zm193.6,40.1H274.9a9.035,9.035,0,0,1,0-18h21.4v-.1a9.062,9.062,0,0,1,6.124,3.262A9.219,9.219,0,0,1,304.5,131.6,9.071,9.071,0,0,1,296.3,139.8ZM275,59.5h-7.2a9.937,9.937,0,0,1,0-19.8H275a9.941,9.941,0,0,1,0,19.8Z" transform="translate(-55.5)" fill="#f5cfca"/>
</svg>
