<svg xmlns="http://www.w3.org/2000/svg" width="279.166" height="321" viewBox="0 0 279.166 321">
  <path id="Subtraction_21" data-name="Subtraction 21" d="M133.748,0H0V321H80.634l144.566-.1a9.04,9.04,0,0,0,6.013-3.388A8.847,8.847,0,0,0,233.1,310.9a8.731,8.731,0,0,0-2.526-5.3A9.162,9.162,0,0,0,225.2,303H77.2a11.045,11.045,0,0,1,0-22h108a10,10,0,0,0,0-20h-24a11.046,11.046,0,0,1,0-22h10v-.1a9.042,9.042,0,0,0,6.013-3.388A8.847,8.847,0,0,0,179.1,228.9a8.731,8.731,0,0,0-2.526-5.3A9.162,9.162,0,0,0,171.2,221v-.1h-66a10.816,10.816,0,0,1-7.414-3.813A10.995,10.995,0,0,1,105.2,199h85.6a8.936,8.936,0,0,0,8.2-9.8,9.07,9.07,0,0,0-8.2-8.2H69.2a11.046,11.046,0,0,1,0-22h202v-.1a8.964,8.964,0,0,0,5.375-15.2,9.16,9.16,0,0,0-5.375-2.6V141h-130a11.045,11.045,0,0,1,0-22h30v-.1a8.963,8.963,0,0,0,5.375-15.2,9.162,9.162,0,0,0-5.375-2.6V101h-4a11.045,11.045,0,0,1,0-22h60v-.1a8.964,8.964,0,0,0,5.374-15.2,9.159,9.159,0,0,0-5.374-2.6V61H65.2a10.812,10.812,0,0,1-7.413-3.814A10.994,10.994,0,0,1,65.2,39.1h114V39a8.964,8.964,0,0,0,5.375-15.2,9.162,9.162,0,0,0-5.375-2.6v-.1h-42A11.038,11.038,0,0,1,133.749,0ZM47.2,221.3a10.83,10.83,0,0,1-7.439-3.888A10.989,10.989,0,0,1,37.2,209.4a11.1,11.1,0,0,1,10-10h26a10.822,10.822,0,0,1,7.475,3.85A11.02,11.02,0,0,1,73.2,221.3Zm193.6-40.1H219.4a9.035,9.035,0,0,0,0,18h21.4v.1a9.062,9.062,0,0,0,6.124-3.262A9.219,9.219,0,0,0,249,189.4,9.071,9.071,0,0,0,240.8,181.2Zm-21.3,80.3h-7.2a9.937,9.937,0,0,0,0,19.8h7.2a9.941,9.941,0,0,0,0-19.8Z" transform="translate(279.166 321) rotate(180)" fill="#f5cfca"/>
</svg>
