<svg xmlns="http://www.w3.org/2000/svg" width="158" height="158" viewBox="0 0 158 158">
  <g id="Group_222" data-name="Group 222" transform="translate(-1027 -893)">
    <circle id="Ellipse_197" data-name="Ellipse 197" cx="79" cy="79" r="79" transform="translate(1027 893)" fill="#ffb76e"/>
    <g id="Group_221" data-name="Group 221" transform="translate(1058 919.213)">
      <path id="Path_85" data-name="Path 85" d="M10.562,74.707A27.408,27.408,0,0,1,7.2,66.051C5.655,59.408,6.22,55.079,9.288,53.428c-2.356-16.937,2.4-29.791,11.864-38.844A41,41,0,0,1,29.695,8.3a27.958,27.958,0,0,1,4.221-1.951A35.98,35.98,0,0,1,47.465,4.716,36.32,36.32,0,0,1,61.16,6.4a28.4,28.4,0,0,1,4.08,1.9,41,41,0,0,1,8.542,6.28C83.248,23.636,88,36.492,85.643,53.43c3.068,1.652,3.637,5.98,2.093,12.621a27.464,27.464,0,0,1-3.355,8.641,10.83,10.83,0,0,1-4.5,4.182,35.837,35.837,0,0,1-1.119,4.163A44.955,44.955,0,0,1,70.6,97.55a3.262,3.262,0,0,1-.294.313C62.773,106.4,54.763,110.708,46.474,110.4a26.407,26.407,0,0,1-14.291-5.309,38.354,38.354,0,0,1-7.193-6.7,45.358,45.358,0,0,1-8.73-15.041,35.732,35.732,0,0,1-1.214-4.483A10.825,10.825,0,0,1,10.562,74.707Zm10.811,1.238a12.738,12.738,0,0,0,.177,1.282,27.813,27.813,0,0,0,1.043,4,38.484,38.484,0,0,0,7.5,12.857q.085.1.162.2a31.882,31.882,0,0,0,5.815,5.38,19.9,19.9,0,0,0,10.664,4.066c6.081.227,12.37-3.19,18.754-10.5a38.252,38.252,0,0,0,6.919-12.278,27.63,27.63,0,0,0,.979-3.806c.113-.635.16-1.049.169-1.211A3.34,3.34,0,0,1,77.116,72.8a4.757,4.757,0,0,0,1.647-1.716,21.163,21.163,0,0,0,2.465-6.539,20.629,20.629,0,0,0,.672-4.833,3.344,3.344,0,0,1-3.41-3.967c3.149-16.448-.818-28.2-9.329-36.338a34.356,34.356,0,0,0-7.149-5.257c-.842-.464-1.619-.844-2.306-1.143-.389-.169-.646-.269-.6-.258a29.208,29.208,0,0,0-11.3-1.358,3.345,3.345,0,0,1-.678,0A28.877,28.877,0,0,0,35.976,12.7c-.1.035-.358.135-.746.3-.687.3-1.464.679-2.306,1.143a34.362,34.362,0,0,0-7.15,5.258c-8.511,8.14-12.48,19.89-9.332,36.337a3.345,3.345,0,0,1-3.406,3.967,20.685,20.685,0,0,0,.675,4.833,21.112,21.112,0,0,0,2.467,6.548,4.41,4.41,0,0,0,1.6,1.659A3.422,3.422,0,0,1,21.373,75.944Zm30.8-5.861A2.225,2.225,0,1,1,54.2,74.044a13.791,13.791,0,0,1-12.463,0,2.225,2.225,0,1,1,2.021-3.964,9.331,9.331,0,0,0,8.416.006Z" fill="#fff"/>
    </g>
  </g>
</svg>
