<svg xmlns="http://www.w3.org/2000/svg" width="158" height="158" viewBox="0 0 158 158">
  <g id="Group_226" data-name="Group 226" transform="translate(-444 -893)">
    <circle id="Ellipse_195" data-name="Ellipse 195" cx="79" cy="79" r="79" transform="translate(444 893)" fill="#ffb76e"/>
    <path id="Path_95" data-name="Path 95" d="M87.4,85.3,76.476,42.653a7.772,7.772,0,0,0-7.529-5.843H53.837V32.383a14.139,14.139,0,1,0-7.77,0V36.81H30.957a7.772,7.772,0,0,0-7.529,5.843L12.5,85.3A7.772,7.772,0,0,0,20.03,95H79.872a7.774,7.774,0,0,0,7.53-9.7ZM43.584,18.8a6.368,6.368,0,1,1,6.368,6.368A6.375,6.375,0,0,1,43.584,18.8ZM20.03,87.228,30.955,44.582H68.947L79.872,87.228Z" transform="translate(473 918.341)" fill="#fff"/>
  </g>
</svg>
